<svg id="lungs" enable-background="new 0 0 300 300" height="512" viewBox="0 0 300 300" width="512" xmlns="http://www.w3.org/2000/svg"><g><path d="m89.695 44c2.209 0 4-1.791 4-4v-8c0-2.209-1.791-4-4-4s-4 1.791-4 4v8c0 2.209 1.791 4 4 4z"/><path d="m89.695 52c-2.209 0-4 1.791-4 4v8c0 2.209 1.791 4 4 4s4-1.791 4-4v-8c0-2.209-1.791-4-4-4z"/><path d="m73.695 52h8c2.209 0 4-1.791 4-4s-1.791-4-4-4h-8c-2.209 0-4 1.791-4 4s1.791 4 4 4z"/><path d="m97.695 52h8c2.209 0 4-1.791 4-4s-1.791-4-4-4h-8c-2.209 0-4 1.791-4 4s1.791 4 4 4z"/><circle cx="53.695" cy="88" r="4"/><path d="m171.695 244c-7.719 0-14 6.281-14 14s6.281 14 14 14 14-6.281 14-14-6.281-14-14-14zm0 20c-3.309 0-6-2.691-6-6s2.691-6 6-6 6 2.691 6 6-2.691 6-6 6z"/><path d="m125.824 153.373c-2.201.184-3.836 2.117-3.652 4.32 1.182 14.145 1.127 27.01-.168 38.24-2.102 18.252-16.021 33.02-34.641 36.744-5.814 1.162-11.342 3.299-16.432 6.352l-13.34 8.004c-1.672.998-3.668 1.008-5.336.006-1.68-1.006-2.625-2.777-2.527-4.738 2.5-51.207 22.787-152.135 58.352-153.396.02-.002.039-.002.059-.002 2.113 0 3.072 4.148 4.736 13.523.688 3.873 1.467 8.262 2.611 13.133.506 2.148 2.654 3.484 4.811 2.979 2.15-.506 3.484-2.66 2.979-4.811-1.096-4.654-1.854-8.928-2.523-12.699-1.947-10.973-3.525-20.49-12.957-20.119-48.403 1.718-64.419 127.431-66.06 161.001-.238 4.887 2.217 9.482 6.408 11.992 2.09 1.252 4.43 1.877 6.771 1.877 2.348 0 4.697-.629 6.793-1.887l13.338-8.004c4.301-2.578 8.973-4.385 13.887-5.367 22.033-4.408 38.518-21.959 41.02-43.674 1.354-11.752 1.418-25.15.191-39.822-.183-2.201-2.103-3.839-4.32-3.652z"/><path d="m192.205 80.908c-9.381-.318-11.012 9.148-12.959 20.121-.67 3.77-1.428 8.043-2.523 12.697-.506 2.15.828 4.305 2.979 4.811 2.16.508 4.305-.83 4.811-2.979 1.145-4.871 1.924-9.258 2.611-13.131 1.68-9.463 2.623-13.623 4.797-13.523 35.564 1.262 55.852 102.189 58.352 153.396.098 1.961-.848 3.732-2.527 4.738-1.668.996-3.666.994-5.338-.006l-13.342-8.004c-5.088-3.053-10.615-5.189-16.43-6.352-18.617-3.725-32.537-18.492-34.639-36.746-1.295-11.219-1.352-24.086-.168-38.238.184-2.203-1.451-4.137-3.652-4.32-2.236-.182-4.137 1.451-4.32 3.652-1.227 14.682-1.162 28.078.191 39.822 2.502 21.715 18.984 39.266 41.018 43.674 4.914.982 9.586 2.789 13.885 5.367l13.34 8.004c2.096 1.258 4.445 1.887 6.793 1.887 2.344 0 4.686-.627 6.773-1.877 4.191-2.51 6.646-7.105 6.408-11.992-1.642-33.569-17.658-159.282-66.06-161.001z"/><path d="m208.553 179.291c1.635 4.91 6.211 8.209 11.383 8.209 1.289 0 2.566-.207 3.797-.617 6.275-2.094 9.68-8.902 7.59-15.18-3.203-9.605-8.389-18.037-15.443-25.119l4.4-3.381c2.541-1.953 4.17-4.777 4.588-7.955.416-3.178-.43-6.328-2.383-8.871-1.953-2.541-4.777-4.17-7.955-4.588-3.197-.43-6.332.43-8.871 2.383l-10.4 7.988c-12.453-6.016-25.221-8.549-33.51-9.613v-66.547c0-2.209-1.791-4-4-4s-4 1.791-4 4v70.121c0 2.061 1.566 3.785 3.617 3.982 7.645.732 22.551 3.047 36.496 10.305 1.377.715 3.045.572 4.283-.377l12.391-9.518c.844-.652 1.891-.941 2.953-.793 1.059.139 2 .684 2.652 1.531 1.344 1.748 1.014 4.264-.736 5.607l-8.141 6.254c-.951.73-1.525 1.852-1.561 3.053-.035 1.199.469 2.352 1.375 3.139 7.791 6.766 13.395 15.152 16.654 24.928.697 2.092-.439 4.363-2.531 5.061-2.062.691-4.379-.486-5.059-2.531-12.357-37.07-61.709-38.98-65.66-39.07-.172-.018-.363-.029-.518-.029-.121.006-.279.014-.449.029-3.709.082-53.27 1.91-65.658 39.07-.68 2.045-2.998 3.215-5.059 2.531-2.092-.697-3.229-2.969-2.531-5.059 3.26-9.777 8.863-18.164 16.654-24.93.906-.787 1.41-1.939 1.375-3.139-.035-1.201-.609-2.322-1.561-3.053l-8.141-6.254c-1.75-1.344-2.08-3.859-.736-5.607.652-.848 1.594-1.393 2.652-1.531 1.068-.145 2.111.145 2.955.795l12.4 9.525c1.236.949 2.904 1.09 4.283.377 13.773-7.164 28.467-9.512 36-10.271 2.043-.207 3.598-1.928 3.598-3.98v-70.166c0-2.209-1.791-4-4-4s-4 1.791-4 4v66.609c-8.164 1.09-20.723 3.635-32.994 9.561l-10.412-7.998c-2.541-1.951-5.693-2.801-8.871-2.383s-6.002 2.047-7.955 4.588c-1.953 2.543-2.799 5.693-2.383 8.871.418 3.178 2.047 6.002 4.588 7.955l4.4 3.381c-7.055 7.082-12.24 15.514-15.443 25.121-2.09 6.275 1.314 13.084 7.594 15.178 1.23.41 2.506.617 3.793.617 5.172 0 9.746-3.299 11.383-8.207 10.941-32.822 57.854-33.602 58.301-33.605.088 0 .176-.002.262-.008.076.004.145.008.203.008.474.003 47.397.775 58.341 33.603z"/></g></svg>