<svg height="512" viewBox="0 0 512 512" width="512" xmlns="http://www.w3.org/2000/svg"><g id="Corona_Virus_Symptoms_Cough" data-name="Corona Virus Symptoms Cough"><g id="Outline"><path d="m327.988 222.567c-10.578 0-10.591 16 0 16 26.445 0 40-21.039 40-48 0-50.707-56-50.592-56-8 0 10.576 16 10.593 16 0 0-21.9 24-20.66 24 8 0 9.622-2.339 32-24 32z"/><path d="m343.988 384a56.063 56.063 0 0 0 -56 56v64c0 10.576 16 10.592 16 0v-64a40 40 0 0 1 80 0v64c0 10.576 16 10.592 16 0v-64a56.063 56.063 0 0 0 -56-56z"/><path d="m136 272h15.988c10.578 0 10.591-16 0-16h-15.988a8 8 0 0 0 0 16z"/><path d="m175.988 320v16c0 10.576 16 10.592 16 0v-16c0-10.576-16-10.592-16 0z"/><path d="m138.331 306.343a8.009 8.009 0 0 0 5.657 13.657c5.675 0 7.011-4.642 21.658-18.343 7.478-7.479-3.823-18.8-11.315-11.314z"/><path d="m144 344a24.028 24.028 0 0 0 -24 24v18.053c0 6.708-9.469 8.24-11.589 1.88l-12.085-36.253 9.614-38.457a26.735 26.735 0 0 0 -25.94-33.223c-9.878 0-7.065 9.167-31.49 69.191-1.6 4.259-.685.89 23.49 107.72v47.089a8 8 0 0 0 16 0v-48c0-1.722 1.192 4.576-23.662-103.449l20.732-55.287a10.741 10.741 0 0 1 5.349 12.079c-10.1 42.13-11.3 41.3-10.009 45.187l12.821 38.462c7.841 23.523 42.769 17.86 42.769-6.939v-18.053c0-10.588 16-10.575 16 0-.959 7.71 5.752 45.663-22.4 83.2-3.18 4.24-.984 4.415 2.116 53.414.813 10.56 16.764 9.32 15.953-1.228l-3.469-45.053c29.667-41.633 22.856-82.633 23.8-90.333a24.028 24.028 0 0 0 -24-24z"/><path d="m457.918 165.527c9.357-39.777 7.954-75.806-3.951-101.453-9.145-19.7-23.885-31.62-41.855-34.023-17.631-33.151-57.012-33.259-93.883-26.51-10.422 1.907-7.518 17.649 2.881 15.738 81.758-14.969 71.281 25.829 85.49 26.346 17.792.646 27.687 14.053 32.855 25.186 10.252 22.086 11.306 55.273 2.889 91.052-9.591 40.774-30.625 83.19-60.957 123.009-13.783-6.064-24.564-14.49-32.843-25.641-6.3-8.492-19.16 1.033-12.846 9.538 10.045 13.53 23.589 23.993 40.291 31.181v31.231c-14.3 7.364-63.585 31.165-111.645 35.965 23.592-33.786 12.812-4.16 15.645-63.146a8 8 0 0 0 -3.077-6.306c-5.346-4.174-8.5-.065-42.676 7.5a22.411 22.411 0 0 1 -24.119-9.314c9.367-6.066 25.139-8.11 21.421-18.56-5.771-16.23-11.531-27.625-35.857-26.193-4-11.619-3.282-15.343-7.5-17.938l-18.4-11.322c20.015-26.605 22.205-26.5 22.205-31.3v-43.937c24.991 9.535 46.6 3.287 104 5.37 10.578 0 10.591-16 0-16h-74.13c-1.5-1.059-63.868 6.578-69.524-87.478 24.43 12.7 64.971-1.208 107.93-13.7 10.16-2.981 5.649-18.321-4.5-15.354-46.814 14.67-92.745 28.029-104.421 7.487-3.358-7.227-14.511-5.427-15.116 3.05-2.614 36.358 8.139 85.653 39.767 108.088v49.737l-24.314 31.263a8 8 0 0 0 2.122 11.725l23.405 14.4c3.866 8.961 3.241 23.991 13.859 22.461 17.559-2.531 20.216 1.81 22.943 8.373-10.491 6.659-25.079 8.248-22.027 18.418a38.386 38.386 0 0 0 46.14 26.245l25.872-6.468v26.806c-34.877 41.873-64 104.344-64 162.948 0 10.576 16 10.592 16 0 0-48 20.13-91.528 37.448-120.094 53.453-1.729 109.66-28.142 128.2-37.617 75.96 104.81 34.846 165.71 58.348 165.71a8 8 0 0 0 8-8c0-58.6-9.422-107.735-56-170.653v-36.025c32.823-42.384 55.605-87.901 65.93-131.795z"/><path d="m296 16c0-10.577-16-10.592-16 0s16 10.592 16 0z"/></g></g></svg>