<svg id="Capa_1" enable-background="new 0 0 511.95 511.95" height="512" viewBox="0 0 511.95 511.95" width="512" xmlns="http://www.w3.org/2000/svg"><g><path d="m40.779 481.246c40.939 40.938 107.552 40.94 148.5-.008 10.561-10.576 194.055-194.338 200.78-201.073 29.558-29.559 37.77-72.5 24.646-109.499l27.795-27.795c42.369 52.956 39.037 130.669-10.014 179.72l-54.857 54.857c-16.723-7.966-37.381-5.045-51.209 8.782-17.586 17.587-17.589 46.051 0 63.64 17.544 17.545 46.094 17.546 63.64 0 14.119-14.118 16.643-34.847 8.801-51.228l54.838-54.838c61.34-61.341 64.193-159.359 8.56-224.113 8.237-16.802 5.392-37.706-8.56-51.659-13.826-13.827-34.485-16.75-51.209-8.782l-23.038-23.038 10.607-10.607c5.858-5.857 5.858-15.355 0-21.213-5.856-5.857-15.354-5.858-21.213 0-15.195 15.195-27.237 27.237-42.427 42.426-5.858 5.857-5.858 15.355 0 21.213 5.857 5.858 15.355 5.858 21.213 0l10.606-10.606 21.214 21.213-28.336 28.335c-36.483-12.989-79.519-5.335-109.558 24.706-10.721 10.737-194.086 194.37-200.779 201.073-41.033 41.034-41.039 107.455 0 148.494zm328.067-52.588c-5.861 5.861-15.351 5.863-21.214 0-5.863-5.864-5.863-15.35 0-21.213 5.85-5.849 15.364-5.848 21.214 0 5.862 5.862 5.862 15.349 0 21.213zm-137.863-243.929 106.066 106.066-137.194 137.395-106.066-106.066zm180.289-95.483c5.85-5.848 15.365-5.847 21.213 0 5.849 5.849 5.849 15.366.001 21.214l-32.581 32.581c-5.833-7.79-12.878-14.971-21.204-21.224zm-42.426 63.64c29.242 29.242 29.242 76.824-.008 106.074l-10.592 10.607-106.066-106.067 10.599-10.615c29.352-29.349 76.784-29.281 106.067.001zm-306.846 201.073 10.591-10.606 106.066 106.066-10.599 10.614c-29.242 29.242-76.824 29.242-106.066 0-29.303-29.302-29.323-76.744.008-106.074z"/></g></svg>